<svg width="25" height="24" viewBox="0 0 25 24" fill="none" xmlns="http://www.w3.org/2000/svg">
<g id="Group">
<path id="Vector" d="M11 2C12.596 1.99989 14.1597 2.44911 15.5123 3.29623C16.8649 4.14336 17.9517 5.35417 18.6482 6.79009C19.3448 8.22602 19.623 9.82905 19.4511 11.4157C19.2792 13.0024 18.664 14.5086 17.676 15.762L21.328 19.414C21.5102 19.6026 21.611 19.8552 21.6087 20.1174C21.6064 20.3796 21.5012 20.6304 21.3158 20.8158C21.1304 21.0012 20.8796 21.1064 20.6174 21.1087C20.3552 21.111 20.1026 21.0102 19.914 20.828L16.262 17.176C15.1975 18.015 13.9477 18.5872 12.617 18.8449C11.2864 19.1026 9.91333 19.0384 8.61252 18.6576C7.31171 18.2768 6.12084 17.5904 5.13925 16.6557C4.15766 15.7211 3.41382 14.5652 2.96979 13.2846C2.52576 12.004 2.39442 10.6357 2.58672 9.29404C2.77902 7.95235 3.28939 6.67609 4.07525 5.57175C4.8611 4.46742 5.89966 3.56702 7.10427 2.94569C8.30887 2.32436 9.6446 2.00012 11 2ZM11 4C9.2761 4 7.6228 4.68482 6.40382 5.90381C5.18483 7.12279 4.50001 8.77609 4.50001 10.5C4.50001 12.2239 5.18483 13.8772 6.40382 15.0962C7.6228 16.3152 9.2761 17 11 17C12.7239 17 14.3772 16.3152 15.5962 15.0962C16.8152 13.8772 17.5 12.2239 17.5 10.5C17.5 8.77609 16.8152 7.12279 15.5962 5.90381C14.3772 4.68482 12.7239 4 11 4Z" fill="white"/>
</g>
</svg>
