<svg width="21" height="15" viewBox="0 0 21 15" fill="none" xmlns="http://www.w3.org/2000/svg">
<path id="Vector" d="M19.4992 -0.000104817L1.49918 -0.000103243C1.31694 0.000468024 1.1383 0.0507314 0.982505 0.145275C0.826705 0.239818 0.699639 0.375062 0.614985 0.536449C0.530331 0.697837 0.491296 0.879257 0.502078 1.06118C0.51286 1.2431 0.573054 1.41864 0.676181 1.5689L9.67618 14.5689C10.0492 15.1079 10.9472 15.1079 11.3212 14.5689L20.3212 1.5689C20.4254 1.41895 20.4864 1.24333 20.4978 1.0611C20.5092 0.878874 20.4704 0.697017 20.3857 0.535288C20.3009 0.373559 20.1735 0.238141 20.0172 0.143751C19.8609 0.0493613 19.6818 -0.000392842 19.4992 -0.000104817ZM10.4992 12.2429L3.40718 1.9999L17.5912 1.9999L10.4992 12.2429Z" fill="black"/>
</svg>
