<svg width="247" height="34" viewBox="0 0 247 34" fill="none" xmlns="http://www.w3.org/2000/svg">
<g id="Logo">
<g id="Group 3">
<path id="Vector 1" d="M9.62129 13.1448L5.21997 17.6535L5.97141 20.5519L13.9153 19.5858L38.1762 7.88471L39.7864 3.4834L31.1985 3.6981L20.893 7.34797L9.62129 13.1448Z" fill="white"/>
<path id="Vector" d="M8.72046 30.1796C8.72046 30.1796 14.1545 33.9771 20.8208 33.9703C21.3394 33.9703 21.8571 33.9732 22.3758 33.9907C24.2586 34.0566 29.7188 33.8763 34.3763 30.0652" fill="#4F235E"/>
<path id="Vector_2" d="M9.61725 30.4287C9.6221 30.2736 9.07724 30.4558 8.97932 30.3763C8.25995 29.7898 7.51829 29.2275 6.83673 28.5992C4.87835 26.796 3.3446 24.6747 2.18605 22.2771C1.78274 21.4424 1.91362 20.63 2.29754 19.8544C2.52635 19.3929 2.56028 19.0565 2.27815 18.5698C0.970302 16.3138 0.0647919 13.9084 0.00371361 11.2666C-0.0370053 9.49239 0.251905 7.76474 1.1293 6.18446C2.22289 4.21638 4.85992 3.95753 6.04853 5.71232C6.68452 6.65079 6.66513 7.71045 6.49353 8.78465C6.23079 10.4309 5.67527 12.0111 5.40672 13.6573C5.30589 14.2778 5.27487 14.8954 5.27681 15.5198C5.27681 15.6409 5.23609 15.7999 5.38151 15.862C5.52694 15.924 5.61225 15.7805 5.70242 15.701C6.48771 15.0156 7.28948 14.3505 8.13683 13.7436C8.35593 13.5866 8.31909 13.4382 8.22893 13.2279C7.92741 12.525 7.63657 11.8163 7.36123 11.1027C6.94047 10.012 7.38934 8.75363 8.37241 8.25337C9.29828 7.78316 10.4268 8.39976 10.5955 9.42452C10.7118 10.1293 10.5906 10.8158 10.4607 11.5031C10.4277 11.6757 10.3046 11.8415 10.4374 12.0596C11.0773 11.7959 11.6173 11.3577 12.2029 11.0048C16.1507 8.62759 20.2788 6.63237 24.6076 5.04627C26.6145 4.31139 28.6456 3.65601 30.7203 3.15672C32.6254 2.69815 34.5634 2.36755 36.5285 2.36949C37.8044 2.37046 39.1006 2.417 40.2194 3.19453C40.5888 3.45145 40.6121 3.04911 40.6712 2.89108C40.8806 2.33459 41.1647 1.8353 41.5767 1.40581C43.667 -0.768772 47.0912 -0.363522 48.6628 2.22697C49.5954 3.76557 49.8727 5.46897 49.9483 7.21213C50.0608 9.80166 49.6148 12.27 48.2469 14.5318C47.3229 16.0598 45.9976 16.9866 44.2952 17.4345C43.2491 17.7098 42.6083 18.4748 42.0566 19.3376C41.473 20.2519 41.2093 21.3106 40.7304 22.2733C39.9538 23.8322 39.0143 25.2806 37.9363 26.6496C36.9057 27.9584 35.6531 29.02 34.3753 30.0632C34.2687 30.1504 33.1625 30.0399 33.0461 30.1766C32.8416 30.418 33.1595 30.9852 33.3137 31.0065M10.6788 16.3138C10.7748 16.4543 10.8524 16.4001 10.9261 16.2915C12.0042 15.416 13.184 14.6976 14.3445 13.9472C15.4391 13.2395 16.6665 12.6966 17.2908 11.4372C17.3306 11.3577 17.4072 11.2976 17.4673 11.2278C18.1944 10.3766 19.0999 10.1739 20.1411 10.5084C20.3515 10.5763 20.5154 10.5579 20.7141 10.4667C22.7559 9.53407 24.8413 8.70709 26.978 8.02263C28.9102 7.40312 30.8861 6.91934 32.9017 6.68472C34.385 6.51215 35.8916 6.36576 37.3691 6.80397C37.5872 6.86893 37.723 6.75744 37.8199 6.5868C37.9198 6.41229 38.0022 6.22906 38.0914 6.0497C38.6149 4.99489 38.3231 4.45197 37.1975 4.19893C35.6948 3.85961 34.1979 4.02345 32.7262 4.2697C29.841 4.75251 27.0381 5.56398 24.3061 6.61977C20.0946 8.24755 16.0276 10.1584 12.2591 12.6646C12.0749 12.78 11.9101 12.9186 11.788 13.001C11.7143 13.0504 11.6464 13.1076 11.5785 13.1658C11.214 13.477 10.7709 13.6777 10.3919 13.9686C9.9876 14.2138 10.0749 14.3961 10.133 14.9196C10.1621 15.0815 10.1912 15.2454 10.2203 15.4073C10.3027 15.7359 10.3967 15.9182 10.5751 16.1965L10.6788 16.3128V16.3138ZM0.986784 12.905C0.556327 11.9617 0.999388 11.4236 0.964486 11.2724C1.09925 11.0135 1.39979 11.9995 1.24855 11.7436C1.27763 11.22 0.946065 10.618 0.97515 10.0935C1.0149 10.014 1.34356 9.94805 1.2311 9.8637C1.27376 9.64363 1.01975 9.59515 1.06337 9.37508C1.31932 9.30721 1.139 9.03866 1.03041 8.88936L1.27279 8.27179C1.56848 7.92277 1.44923 7.44481 1.83606 7.10258C2.20059 6.32892 3.01206 5.79182 3.86813 5.39432C2.39643 5.46413 1.23982 6.59165 0.931522 8.12249C0.483615 10.3426 0.680423 12.5192 1.32611 14.6714C1.23885 14.9109 1.11282 15.1649 1.4822 15.2405C1.52873 15.3103 1.56266 15.3598 1.6092 15.4296C1.55394 15.8717 1.85254 16.1393 2.11625 16.4311C1.64798 16.3235 1.25824 15.3404 0.865597 14.8896C0.860749 14.8091 1.17874 14.7713 1.17487 14.6908C1.28054 14.5444 1.22334 14.5852 0.998418 14.5144L1.20783 13.4993C0.843298 12.9506 1.23013 13.0504 0.986784 12.904V12.905ZM28.6078 16.4311C28.3916 16.4156 28.2219 16.5406 28.0474 16.6327C26.376 17.515 24.7084 18.403 22.9585 19.1234C22.6715 19.2417 22.4311 19.5868 22.434 19.897C22.4437 21.0323 22.6764 22.1501 22.655 23.2903C22.6376 24.2103 22.7733 24.2607 23.7099 24.1269C24.6154 23.998 25.5073 23.809 26.4031 23.6364C26.9732 23.5268 27.1361 23.3106 27.0915 22.7667C26.9189 20.6804 27.329 18.7259 28.4749 16.9488C28.5748 16.7937 28.6582 16.6289 28.6097 16.432C28.6252 16.4282 28.6407 16.4243 28.6572 16.4204C28.6465 16.4088 28.6359 16.3971 28.6252 16.3845C28.6194 16.4001 28.6145 16.4156 28.6087 16.4301L28.6078 16.4311ZM40.8205 12.2302C40.9349 11.7397 40.741 11.2239 40.6954 10.6984C40.6227 9.84722 40.4599 8.99891 40.1729 8.1855C40.042 7.81516 39.8384 7.73275 39.5388 8.06044C39.1956 8.4366 38.8224 8.78465 38.4724 9.15597C37.0133 10.7052 35.3448 11.9985 33.6026 13.2114C32.7795 13.7844 31.8149 14.21 31.1915 15.0069C30.1211 16.3758 29.1167 17.8058 28.4837 19.4423C28.0833 20.4778 27.9844 21.5675 28.1269 22.6766C28.1725 23.0266 28.3392 23.1138 28.6514 23.0052C29.0305 22.8724 29.425 22.7726 29.7847 22.6C31.2613 21.8903 32.7107 21.1409 34.0476 20.1724C36.64 18.2954 38.8292 16.051 40.5723 13.3646C40.8031 13.0088 40.8535 12.6646 40.8186 12.2283L40.8205 12.2302ZM40.5006 16.9643C40.4531 16.8131 40.5781 16.6104 40.4085 16.5115C40.2708 16.432 40.1874 16.5959 40.1147 16.6928C39.247 17.8524 38.1573 18.7889 37.054 19.707C34.6904 21.6732 31.939 23.0828 29.0256 24.0649C28.3702 24.2859 28.3673 24.6224 28.9122 25.4901C29.6606 26.6816 30.7009 27.6666 31.9234 28.3627C32.383 28.6244 32.8144 28.8048 33.2701 28.4654C34.4674 27.5735 35.528 26.5255 36.4646 25.3824C37.8732 23.6645 38.994 21.7556 39.7318 19.643C40.0381 18.7666 40.3542 17.8921 40.4996 16.9643H40.5006ZM23.0584 29.1305C23.069 30.1999 23.2009 31.0841 23.3376 31.9692C23.3773 32.229 23.5198 32.3134 23.7535 32.2853C24.1888 32.2339 24.627 32.198 25.0565 32.1156C26.8937 31.7617 28.6378 31.1335 30.3209 30.323C30.8938 30.0467 30.9491 29.9061 30.4789 29.4892C29.1836 28.3433 28.3489 26.8958 27.7042 25.3233C27.4162 24.6214 27.3125 24.5933 26.565 24.7571C25.5315 24.984 24.4874 25.1692 23.4403 25.3185C22.7578 25.4154 22.7423 25.4164 22.8247 26.1357C22.9449 27.1877 22.8111 28.2589 23.0574 29.1305H23.0584ZM21.2541 29.7655C21.3414 28.5992 21.1048 27.3234 21.1669 26.0417C21.1911 25.5453 20.9807 25.4173 20.5192 25.4173C19.3491 25.4173 18.176 25.3776 17.0232 25.1604C16.5947 25.08 16.4037 25.27 16.3727 25.6093C16.3 26.4033 15.8744 27.0674 15.5622 27.7519C15.1337 28.6884 14.585 29.5862 13.7395 30.2522C13.4429 30.4859 13.3915 30.7234 13.8472 30.9309C15.9413 31.881 18.1508 32.295 20.4281 32.4026C21.1484 32.4365 21.2396 32.3221 21.2532 31.5882C21.2638 31.0201 21.2551 30.4519 21.2551 29.7665L21.2541 29.7655ZM46.2206 8.1952C46.2633 8.6402 46.1983 9.18603 46.114 9.72797C45.923 10.9515 45.5497 12.1032 44.7198 13.0582C44.4067 13.4179 44.0548 13.8687 43.5535 13.7582C42.8681 13.6069 42.8012 13.9191 42.8099 14.4378C42.8128 14.6356 42.7614 14.8353 42.7304 15.034C42.6635 15.4626 42.7876 15.6516 43.2782 15.6652C45.064 15.7146 46.0665 14.5987 46.8401 13.2405C47.6147 11.8803 47.955 10.3901 48.0316 8.80114C48.1102 7.18111 48.0433 5.6047 47.5013 4.07871C47.2396 3.3419 46.8789 2.64774 46.1082 2.25606C45.0272 1.70635 43.5816 1.7335 42.8216 2.72627C42.3475 3.3448 42.0178 4.02345 42.0304 4.83395C42.0372 5.28865 42.0615 5.74431 41.8579 6.18252C41.759 6.39387 41.8075 6.64691 41.886 6.88153C42.0188 7.27902 42.1633 7.67555 42.2486 8.08371C42.332 8.47829 42.5036 8.50059 42.7653 8.26791C43.1095 7.96252 43.3926 7.61447 43.5739 7.17529C43.9064 6.36673 44.0596 5.5349 44.0257 4.66235C44.0092 4.23383 44.2942 4.006 44.6461 3.8441C45.0194 3.67249 45.1668 3.99534 45.3684 4.18536C45.5604 4.36569 45.6767 4.60515 45.7427 4.84947C46.0267 5.9101 46.2284 6.9843 46.2216 8.1952H46.2206ZM15.3363 25.2467C15.3635 24.9219 15.1492 24.8424 14.9039 24.7697C13.7502 24.4285 12.5888 24.1163 11.467 23.6703C11.0889 23.52 10.7205 23.2554 10.2688 23.3465C8.8145 23.6383 7.33796 23.6829 5.86335 23.7595C5.71114 23.7673 5.49785 23.6936 5.42805 23.8894C5.36891 24.0562 5.52015 24.189 5.61516 24.3208C7.08977 26.3549 8.86589 28.066 10.9939 29.4146C11.3798 29.6589 11.692 29.6366 12.0594 29.4417C12.9669 28.9599 13.6804 28.2541 14.3028 27.4601C14.8138 26.8086 15.124 26.0446 15.3363 25.2467ZM21.1388 22.2655C21.1388 22.2655 21.13 22.2655 21.1261 22.2655C21.1261 21.6809 21.1436 21.0953 21.1203 20.5107C21.1019 20.0609 20.9187 19.9727 20.5125 20.1733C20.2526 20.3023 19.9909 20.4177 19.7136 20.5127C18.7877 20.8287 17.8764 21.1855 16.9592 21.5297C16.7091 21.6237 16.5511 21.7905 16.6238 22.0745C16.7392 22.5253 16.7072 22.9839 16.6994 23.4386C16.6946 23.7799 16.8487 23.9689 17.1619 24.0048C18.3388 24.1386 19.5119 24.3276 20.7064 24.2695C21.0466 24.253 21.1514 24.1192 21.1417 23.8022C21.1271 23.2903 21.1378 22.7784 21.1378 22.2665L21.1388 22.2655ZM8.67199 15.2648C7.81108 15.9793 6.99476 16.6444 6.28993 17.4335C5.90407 17.865 6.06986 18.342 6.65059 18.4699C6.90944 18.5271 7.146 18.4845 7.38353 18.3478C8.31715 17.8107 8.89885 16.4873 8.67199 15.2657V15.2648ZM17.2637 12.6849C16.236 14.4901 15.663 16.5532 14.012 18.0249C15.4623 18.3507 16.9767 15.1998 17.2637 12.6849ZM12.8689 22.8181C13.4051 23.171 13.9703 23.2476 14.489 23.4415C14.8535 23.5782 15.314 23.744 15.5777 23.5559C15.8763 23.3426 15.6873 22.8453 15.6747 22.4701C15.663 22.1201 15.4594 21.9708 15.1308 22.0677C14.393 22.2868 13.63 22.4342 12.8699 22.8172L12.8689 22.8181ZM8.0806 11.4207C8.06217 10.4948 7.96522 9.56607 8.75439 8.76623C7.70055 8.92426 7.35056 10.5424 8.0806 11.4207Z" fill="#4F235E"/>
<path id="Vector_3" d="M12.1853 6.3531C12.2289 5.65215 12.2299 4.97156 12.4955 4.33363C12.8426 3.50084 13.8044 3.05487 14.6614 3.29627C15.1878 3.4446 15.4447 3.82271 15.5572 4.30455C15.6609 4.74858 15.4893 5.13832 15.149 5.43304C14.929 5.62306 14.6895 5.79661 14.4394 5.94397C13.8305 6.30171 13.3293 6.77095 12.9076 7.33229C12.8009 7.4748 12.6953 7.66289 12.4732 7.60181C12.2512 7.54073 12.259 7.32259 12.2396 7.14712C12.2095 6.87469 12.2008 6.60032 12.1843 6.3531H12.1853ZM13.6444 4.05539C13.0055 4.01176 12.543 4.79318 12.7418 5.49218C13.1238 5.08112 13.1839 4.48875 13.6444 4.05539Z" fill="#4F235E"/>
<path id="Vector_4" d="M16.3707 6.36277C16.4948 5.39812 16.7042 5.01808 17.4682 5.07334C17.9636 5.10921 18.1885 5.40491 18.2564 5.82858C18.3534 6.4316 17.2704 7.26731 16.7004 7.04239C16.3989 6.92314 16.3436 6.65653 16.3698 6.36277H16.3707Z" fill="#4F235E"/>
<path id="Vector_5" d="M40.8206 12.2303C40.8555 12.6656 40.8051 13.0097 40.5744 13.3665C38.8312 16.053 36.6421 18.2974 34.0497 20.1743C32.7127 21.1419 31.2633 21.8923 29.7868 22.6019C29.4271 22.7745 29.0325 22.8744 28.6535 23.0072C28.3422 23.1158 28.1745 23.0285 28.129 22.6785C27.9855 21.5694 28.0853 20.4787 28.4857 19.4443C29.1178 17.8078 30.1232 16.3778 31.1935 15.0088C31.8169 14.2109 32.7816 13.7853 33.6047 13.2133C35.3469 12.0005 37.0154 10.7072 38.4745 9.15792C38.8235 8.78757 39.1967 8.43855 39.5409 8.06239C39.8405 7.7347 40.0441 7.8171 40.175 8.18745C40.4619 8.99989 40.6248 9.84917 40.6975 10.7004C40.7421 11.2249 40.936 11.7416 40.8226 12.2322L40.8206 12.2303Z" fill="#E74F1B"/>
<path id="Vector_6" d="M40.5005 16.9643C40.3551 17.8921 40.0391 18.7666 39.7327 19.6431C38.9949 21.7556 37.8742 23.6655 36.4655 25.3825C35.529 26.5245 34.4683 27.5735 33.271 28.4655C32.9036 28.7389 32.5526 28.6749 32.19 28.5033C30.634 27.7655 29.4648 26.6254 28.6833 25.0926C28.3809 24.4993 28.4846 24.2375 29.0585 24.0533C32.0107 23.1061 34.6971 21.6683 37.0821 19.6838C38.1757 18.7734 39.2547 17.8427 40.1147 16.6929C40.1874 16.5959 40.2708 16.4321 40.4084 16.5116C40.5771 16.6095 40.453 16.8131 40.5005 16.9643Z" fill="#E74F1B"/>
<path id="Vector_7" d="M23.0583 29.1306C22.812 28.2581 22.9458 27.1868 22.8256 26.1359C22.7432 25.4165 22.7587 25.4155 23.4412 25.3186C24.4883 25.1693 25.5324 24.9841 26.5659 24.7572C27.3134 24.5934 27.4181 24.6215 27.7051 25.3234C28.3498 26.8969 29.1835 28.3434 30.4798 29.4894C30.95 29.9053 30.8947 30.0468 30.3217 30.3231C28.6387 31.1346 26.8946 31.7628 25.0574 32.1157C24.6279 32.1981 24.1897 32.234 23.7544 32.2854C23.5197 32.3135 23.3782 32.2292 23.3384 31.9693C23.2017 31.0842 23.0699 30.2 23.0592 29.1306H23.0583Z" fill="#E74F1B"/>
<path id="Vector_8" d="M21.254 29.7656C21.254 30.451 21.2627 31.0191 21.2521 31.5873C21.2385 32.3212 21.1474 32.4356 20.427 32.4016C18.1497 32.294 15.9402 31.88 13.8461 30.9299C13.3904 30.7234 13.4418 30.4849 13.7385 30.2513C14.5839 29.5862 15.1326 28.6875 15.5611 27.751C15.8743 27.0665 16.2989 26.4024 16.3716 25.6084C16.4027 25.269 16.5946 25.079 17.0222 25.1595C18.1749 25.3776 19.348 25.4164 20.5182 25.4164C20.9797 25.4164 21.19 25.5453 21.1658 26.0408C21.1037 27.3224 21.3403 28.5983 21.2531 29.7646L21.254 29.7656Z" fill="#E74F1B"/>
<path id="Vector_9" d="M46.2207 8.19517C46.2274 6.98427 46.0268 5.90909 45.7417 4.84943C45.6758 4.60512 45.5595 4.36662 45.3675 4.18533C45.1649 3.99531 45.0175 3.67246 44.6452 3.84406C44.2933 4.00597 44.0073 4.2338 44.0248 4.66232C44.0597 5.53487 43.9055 6.3667 43.573 7.17526C43.3926 7.61444 43.1086 7.96152 42.7644 8.26788C42.5026 8.50056 42.3301 8.47826 42.2477 8.08368C42.1614 7.67552 42.0179 7.27899 41.8851 6.8815C41.8065 6.64688 41.7581 6.39384 41.857 6.18249C42.0605 5.74331 42.0363 5.28765 42.0295 4.83392C42.0169 4.02342 42.3466 3.34574 42.8206 2.72623C43.5807 1.73347 45.0262 1.70632 46.1072 2.25603C46.879 2.64771 47.2386 3.3409 47.5004 4.07868C48.0423 5.60467 48.1083 7.18204 48.0307 8.80111C47.9541 10.3911 47.6138 11.8812 46.8392 13.2404C46.0655 14.5987 45.0631 15.7146 43.2773 15.6651C42.7867 15.6516 42.6626 15.4625 42.7295 15.034C42.7605 14.8362 42.8119 14.6365 42.809 14.4378C42.8012 13.9201 42.8681 13.6069 43.5526 13.7581C44.0538 13.8687 44.4067 13.4179 44.7189 13.0582C45.5488 12.1032 45.923 10.9514 46.113 9.72794C46.1974 9.186 46.2623 8.64017 46.2197 8.19517H46.2207Z" fill="#E74F1B"/>
<path id="Vector_10" d="M15.3363 25.2467C15.124 26.0446 14.8137 26.8076 14.3028 27.4601C13.6804 28.2541 12.9659 28.9599 12.0594 29.4418C11.6919 29.6366 11.3798 29.6589 10.9939 29.4146C8.86489 28.067 7.08877 26.3558 5.61513 24.3209C5.51915 24.189 5.36791 24.0562 5.42802 23.8894C5.49783 23.6936 5.71111 23.7673 5.86333 23.7595C7.33793 23.6829 8.81447 23.6383 10.2687 23.3465C10.7205 23.2554 11.0889 23.5201 11.467 23.6703C12.5887 24.1173 13.7502 24.4295 14.9039 24.7698C15.1501 24.8425 15.3634 24.922 15.3363 25.2467Z" fill="#E74F1B"/>
<path id="Vector_11" d="M28.6098 16.432C28.6583 16.6288 28.5749 16.7926 28.4751 16.9487C27.3301 18.7258 26.919 20.6803 27.0916 22.7667C27.1362 23.3106 26.9733 23.5268 26.4033 23.6363C25.5065 23.8089 24.6155 23.9979 23.71 24.1269C22.7744 24.2607 22.6377 24.2102 22.6552 23.2902C22.6765 22.1501 22.4438 21.0322 22.4341 19.897C22.4312 19.5712 22.5253 19.2997 22.8258 19.1776C24.6252 18.4476 26.3344 17.5372 28.0485 16.6327C28.223 16.5406 28.3927 16.4155 28.6089 16.431L28.6108 16.4329L28.6098 16.432Z" fill="#E74F1B"/>
<path id="Vector_12" d="M21.1387 22.2656C21.1387 22.7775 21.128 23.2894 21.1426 23.8013C21.1513 24.1183 21.0475 24.2521 20.7073 24.2686C19.5138 24.3258 18.3407 24.1377 17.1628 24.0039C16.8496 23.9681 16.6955 23.779 16.7003 23.4378C16.7071 22.9831 16.7401 22.5245 16.6247 22.0737C16.552 21.7906 16.71 21.6229 16.9601 21.5288C17.8763 21.1856 18.7886 20.8279 19.7145 20.5118C19.9927 20.4168 20.2535 20.3014 20.5134 20.1725C20.9196 19.9718 21.1028 20.06 21.1212 20.5099C21.1445 21.0935 21.127 21.6791 21.127 22.2647C21.1309 22.2647 21.1358 22.2647 21.1397 22.2647L21.1387 22.2656Z" fill="#E74F1B"/>
<path id="Vector_13" d="M1.53752 8.30182C1.4871 8.54807 1.43766 8.79432 1.38822 9.04057C1.33102 9.28392 1.3252 9.23738 1.30581 9.4051C1.29417 9.56895 1.28157 9.73183 1.26994 9.8947C1.26509 10.012 1.26509 10.1031 1.26218 10.2001C1.26315 10.7246 1.26412 11.2491 1.26509 11.7726C1.27188 12.048 1.26509 12.2738 1.27188 12.5065C1.28351 12.6355 1.29514 12.7644 1.30678 12.8924C1.32035 13.0326 1.35331 13.2275 1.40567 13.477C1.44832 13.7572 1.49195 14.0383 1.53461 14.3175C1.57242 14.4668 1.58987 14.5163 1.61605 14.6743C1.63932 14.7645 1.66161 14.8546 1.68488 14.9438C1.76729 15.2686 1.79734 15.2996 1.60732 15.4393C1.58309 15.3762 1.55788 15.3132 1.53364 15.2512C1.34944 14.9429 1.38046 14.8227 1.3252 14.6724C0.679514 12.5201 0.483675 10.3426 0.930613 8.12343C1.23891 6.59259 2.39552 5.46507 3.86722 5.39526C3.01115 5.79276 2.40425 6.32113 2.04069 7.09382" fill="white"/>
<path id="Vector_14" d="M12.8689 22.8182C13.629 22.4352 14.3929 22.2879 15.1298 22.0688C15.4594 21.9708 15.662 22.1201 15.6736 22.4711C15.6862 22.8453 15.8753 23.3436 15.5767 23.5569C15.313 23.745 14.8525 23.5792 14.4879 23.4425C13.9693 23.2477 13.405 23.1711 12.8679 22.8192L12.8689 22.8182Z" fill="#E74F1B"/>
<path id="Vector_15" d="M28.6077 16.4311C28.6135 16.4156 28.6183 16.4 28.6241 16.3855C28.6348 16.3971 28.6455 16.4088 28.6561 16.4214C28.6406 16.4252 28.6251 16.4291 28.6086 16.433L28.6067 16.4311H28.6077Z" fill="#E74F1B"/>
</g>
<g id="Group">
<path id="Vector_16" d="M61.8958 6.3606H66.4999V14.8345H74.9738V6.3606H79.5779V27.4999H74.9738V19.026H66.4999V27.4999H61.8958V6.3606Z" fill="white"/>
<path id="Vector_17" d="M88.156 26.4831C86.5704 25.5473 85.3519 24.2509 84.4941 22.584C83.6396 20.9205 83.2107 19.0359 83.2107 16.9304C83.2107 14.8249 83.6396 12.9437 84.4941 11.2931C85.3519 9.63921 86.5704 8.34602 88.156 7.41025C89.7416 6.47448 91.5969 6.00659 93.7219 6.00659C95.8469 6.00659 97.6729 6.47448 99.2585 7.41025C100.844 8.34602 102.063 9.63921 102.92 11.2931C103.778 12.9469 104.204 14.8249 104.204 16.9304C104.204 19.0359 103.775 20.9205 102.92 22.584C102.066 24.2476 100.844 25.5473 99.2585 26.4831C97.6729 27.4189 95.8274 27.8835 93.7219 27.8835C91.6164 27.8835 89.7416 27.4156 88.156 26.4831ZM96.8216 22.4508C97.6664 21.879 98.3033 21.1122 98.7256 20.1471C99.148 19.1821 99.3592 18.1099 99.3592 16.9272C99.3592 15.7445 99.148 14.6755 98.7256 13.7105C98.3033 12.7455 97.6664 11.9786 96.8216 11.4068C95.9736 10.8349 94.9403 10.549 93.7219 10.549C91.9121 10.549 90.5182 11.1533 89.5434 12.3653C88.5686 13.574 88.0813 15.0979 88.0813 16.9272C88.0813 18.7565 88.5686 20.2771 89.5434 21.4891C90.5182 22.6978 91.9088 23.3054 93.7219 23.3054C94.9436 23.3054 95.9768 23.0194 96.8216 22.4476V22.4508Z" fill="white"/>
<path id="Vector_18" d="M111.42 26.4831C109.835 25.5473 108.616 24.2509 107.758 22.584C106.904 20.9205 106.475 19.0359 106.475 16.9304C106.475 14.8249 106.904 12.9437 107.758 11.2931C108.616 9.63921 109.835 8.34602 111.42 7.41025C113.006 6.47448 114.861 6.00659 116.986 6.00659C119.111 6.00659 120.937 6.47448 122.523 7.41025C124.108 8.34602 125.327 9.63921 126.185 11.2931C127.042 12.9469 127.468 14.8249 127.468 16.9304C127.468 19.0359 127.039 20.9205 126.185 22.584C125.33 24.2476 124.108 25.5473 122.523 26.4831C120.937 27.4189 119.092 27.8835 116.986 27.8835C114.881 27.8835 113.006 27.4156 111.42 26.4831ZM120.086 22.4508C120.931 21.879 121.567 21.1122 121.99 20.1471C122.412 19.1821 122.623 18.1099 122.623 16.9272C122.623 15.7445 122.412 14.6755 121.99 13.7105C121.567 12.7455 120.931 11.9786 120.086 11.4068C119.238 10.8349 118.204 10.549 116.986 10.549C115.176 10.549 113.782 11.1533 112.808 12.3653C111.833 13.574 111.345 15.0979 111.345 16.9272C111.345 18.7565 111.833 20.2771 112.808 21.4891C113.782 22.6978 115.173 23.3054 116.986 23.3054C118.208 23.3054 119.241 23.0194 120.086 22.4476V22.4508Z" fill="white"/>
<path id="Vector_19" d="M140.608 6.3606C141.927 6.3606 143.103 6.65952 144.136 7.26062C145.17 7.86172 145.975 8.68377 146.557 9.72677C147.139 10.7698 147.428 11.9525 147.428 13.2684C147.428 14.5843 147.135 15.7443 146.557 16.797C145.975 17.8498 145.163 18.6718 144.12 19.2632C143.077 19.8545 141.904 20.1502 140.608 20.1502H135.737V27.5032H131.133V6.36384H140.611L140.608 6.3606ZM141.937 15.2472C142.369 14.7728 142.587 14.1749 142.587 13.4471C142.587 12.7193 142.369 12.1084 141.937 11.6178C141.505 11.1239 140.903 10.8802 140.137 10.8802H135.737V15.9587H140.137C140.903 15.9587 141.505 15.7216 141.937 15.2504V15.2472Z" fill="white"/>
<path id="Vector_20" d="M153.065 27.0711C151.785 26.5285 150.762 25.7519 149.995 24.7382C149.228 23.7244 148.844 22.5385 148.844 21.1803H154.011C154.011 21.9471 154.306 22.558 154.898 23.0096C155.489 23.4645 156.246 23.6887 157.172 23.6887C158.098 23.6887 158.829 23.4807 159.43 23.0681C160.031 22.6554 160.33 22.1128 160.33 21.4435C160.33 20.8326 160.015 20.3615 159.385 20.0268C158.755 19.6922 157.741 19.3185 156.344 18.9058C154.888 18.4737 153.692 18.0481 152.757 17.6354C151.821 17.2228 151.015 16.6086 150.336 15.7898C149.657 14.9743 149.319 13.9053 149.319 12.5861C149.319 11.267 149.667 10.172 150.368 9.17447C151.067 8.18021 152.035 7.40366 153.276 6.84154C154.518 6.27943 155.915 6 157.468 6C158.807 6 160.08 6.25669 161.292 6.76682C162.504 7.27694 163.495 8.03726 164.275 9.04126C165.052 10.0453 165.451 11.2475 165.471 12.6446H160.48C160.421 11.7998 160.1 11.163 159.521 10.7406C158.94 10.3182 158.257 10.107 157.471 10.107C156.623 10.107 155.931 10.3247 155.388 10.7568C154.846 11.189 154.576 11.7219 154.576 12.3522C154.576 12.9825 154.904 13.5024 155.564 13.8566C156.223 14.2107 157.27 14.5942 158.709 15.01C160.184 15.4422 161.396 15.8678 162.342 16.2805C163.287 16.6931 164.099 17.3105 164.779 18.126C165.458 18.9448 165.796 20.0008 165.796 21.3005C165.796 22.6002 165.432 23.7212 164.704 24.7252C163.976 25.7292 162.956 26.5057 161.65 27.0581C160.34 27.6072 158.849 27.8834 157.175 27.8834C155.72 27.8834 154.352 27.6137 153.072 27.0711H153.065Z" fill="white"/>
<path id="Vector_21" d="M185.07 6.36067C186.958 6.36067 188.621 6.81231 190.061 7.71884C191.497 8.62537 192.608 9.87956 193.398 11.4814C194.184 13.0865 194.58 14.9028 194.58 16.9271C194.58 18.9513 194.187 20.7709 193.398 22.3727C192.611 23.9779 191.497 25.2321 190.061 26.1386C188.624 27.0451 186.961 27.4967 185.07 27.4967H177.187V6.35742H185.07V6.36067ZM188.316 21.242C189.161 20.0821 189.586 18.6427 189.586 16.9303C189.586 15.218 189.164 13.7819 188.316 12.6186C187.471 11.4587 186.279 10.8771 184.745 10.8771H181.821V22.9803H184.745C186.282 22.9803 187.471 22.3987 188.316 21.2388V21.242Z" fill="white"/>
<path id="Vector_22" d="M203.197 6.3606H208.009L215.716 27.4999H210.787L209.458 23.7503H201.751L200.422 27.4999H195.493L203.201 6.3606H203.197ZM208.188 20.0008L205.589 12.4723L203.019 20.0008H208.185H208.188Z" fill="white"/>
<path id="Vector_23" d="M218.933 10.643H212.646V6.3606H229.828V10.643H223.57V27.4999H218.933V10.643Z" fill="white"/>
<path id="Vector_24" d="M234.376 6.3606H239.189L246.896 27.4999H241.967L240.638 23.7503H232.931L231.602 27.4999H226.673L234.38 6.3606H234.376ZM239.367 20.0008L236.768 12.4723L234.201 20.0008H239.367Z" fill="white"/>
</g>
</g>
</svg>
