<?xml version="1.0" encoding="utf-8"?>
<!-- Generator: Adobe Illustrator 27.9.0, SVG Export Plug-In . SVG Version: 6.00 Build 0)  -->
<svg version="1.1" id="Livello_1" xmlns="http://www.w3.org/2000/svg" xmlns:xlink="http://www.w3.org/1999/xlink" x="0px" y="0px"
	 viewBox="0 0 640 640" style="enable-background:new 0 0 640 640;" xml:space="preserve">
<style type="text/css">
	.st0{fill:#4F235E;}
	.st1{fill:#E74F1B;}
	.st2{fill:#FFFFFF;}
</style>
<g>
	<path class="st0" d="M248.68,339.6c0,0,24.67,17.24,54.94,17.21c2.35,0,4.71,0.01,7.06,0.09c8.55,0.3,33.34-0.52,54.49-17.83"/>
</g>
<g>
	<path class="st0" d="M252.75,340.73c0.02-0.7-2.45,0.13-2.9-0.24c-3.27-2.66-6.63-5.22-9.73-8.07
		c-8.89-8.19-15.86-17.82-21.11-28.7c-1.83-3.79-1.24-7.48,0.51-11c1.04-2.09,1.19-3.62-0.09-5.83
		c-5.94-10.24-10.05-21.17-10.33-33.16c-0.19-8.06,1.13-15.9,5.11-23.08c4.96-8.94,16.94-10.11,22.34-2.14
		c2.89,4.26,2.8,9.07,2.02,13.95c-1.19,7.48-3.72,14.65-4.93,22.12c-0.46,2.82-0.6,5.62-0.59,8.45c0,0.55-0.19,1.27,0.48,1.55
		c0.66,0.28,1.05-0.37,1.46-0.73c3.57-3.11,7.21-6.13,11.05-8.89c1-0.71,0.83-1.39,0.42-2.34c-1.37-3.19-2.69-6.41-3.94-9.65
		c-1.91-4.95,0.13-10.67,4.59-12.94c4.2-2.14,9.33,0.67,10.09,5.32c0.53,3.2-0.02,6.31-0.61,9.44c-0.15,0.78-0.71,1.54-0.1,2.53
		c2.91-1.2,5.36-3.19,8.02-4.79c17.93-10.79,36.67-19.85,56.32-27.05c9.11-3.34,18.33-6.31,27.76-8.58
		c8.65-2.08,17.45-3.58,26.37-3.57c5.79,0.01,11.68,0.22,16.76,3.75c1.68,1.17,1.78-0.66,2.05-1.38c0.95-2.53,2.24-4.79,4.11-6.74
		c9.49-9.88,25.04-8.03,32.17,3.73c4.24,6.98,5.49,14.72,5.84,22.64c0.51,11.76-1.51,22.97-7.72,33.24
		c-4.19,6.94-10.21,11.14-17.94,13.18c-4.75,1.25-7.66,4.72-10.16,8.64c-2.65,4.15-3.85,8.96-6.02,13.33
		c-3.52,7.08-7.79,13.65-12.69,19.87c-4.68,5.94-10.37,10.76-16.17,15.5c-0.48,0.39-5.51-0.11-6.03,0.52
		c-0.93,1.1,0.51,3.67,1.21,3.77 M257.57,276.64c0.43,0.64,0.79,0.39,1.12-0.1c4.9-3.98,10.25-7.24,15.52-10.64
		c4.97-3.21,10.54-5.68,13.38-11.39c0.18-0.36,0.53-0.64,0.8-0.95c3.3-3.87,7.41-4.79,12.14-3.27c0.95,0.31,1.7,0.22,2.6-0.19
		c9.27-4.23,18.74-7.99,28.44-11.1c8.77-2.81,17.75-5.01,26.9-6.08c6.73-0.78,13.58-1.45,20.29,0.54c0.99,0.29,1.61-0.21,2.05-0.98
		c0.45-0.79,0.83-1.62,1.23-2.44c2.38-4.79,1.05-7.25-4.06-8.41c-6.83-1.54-13.62-0.8-20.3,0.32c-13.1,2.19-25.83,5.88-38.23,10.67
		c-19.12,7.39-37.59,16.07-54.7,27.45c-0.84,0.53-1.58,1.15-2.14,1.53c-0.34,0.23-0.64,0.48-0.95,0.75
		c-1.66,1.41-3.67,2.32-5.39,3.64c-1.84,1.11-1.44,1.94-1.18,4.32c0.13,0.74,0.26,1.48,0.4,2.22c0.37,1.49,0.8,2.32,1.61,3.59
		C257.26,276.29,257.42,276.46,257.57,276.64z M213.57,261.16c-1.95-4.28,0.06-6.73-0.1-7.41c0.61-1.17,1.98,3.3,1.29,2.14
		c0.13-2.38-1.37-5.11-1.24-7.49c0.18-0.36,1.67-0.66,1.16-1.04c0.2-1-0.96-1.22-0.76-2.22c1.16-0.31,0.34-1.53-0.15-2.2l1.1-2.8
		c1.34-1.59,0.8-3.76,2.56-5.31c1.65-3.51,5.34-5.95,9.23-7.76c-6.68,0.32-11.93,5.44-13.33,12.39
		c-2.03,10.08-1.14,19.97,1.79,29.74c-0.39,1.09-0.97,2.24,0.71,2.58c0.21,0.32,0.36,0.54,0.57,0.86c-0.25,2.01,1.11,3.22,2.3,4.55
		c-2.12-0.49-3.9-4.95-5.68-7c-0.02-0.37,1.42-0.54,1.4-0.9c0.48-0.67,0.22-0.48-0.8-0.8l0.95-4.61
		C212.91,261.37,214.67,261.83,213.57,261.16z M338.98,277.17c-0.98-0.07-1.75,0.5-2.54,0.92c-7.59,4.01-15.16,8.04-23.11,11.31
		c-1.3,0.54-2.4,2.1-2.38,3.51c0.04,5.15,1.1,10.23,1.01,15.41c-0.08,4.18,0.54,4.41,4.79,3.8c4.11-0.59,8.16-1.44,12.23-2.23
		c2.59-0.5,3.33-1.48,3.13-3.95c-0.78-9.47,1.08-18.35,6.28-26.42C338.83,278.82,339.21,278.07,338.98,277.17
		c0.08-0.01,0.15-0.03,0.22-0.05c-0.05-0.05-0.1-0.11-0.15-0.16C339.03,277.03,339.01,277.1,338.98,277.17z M394.44,258.1
		c0.52-2.23-0.36-4.57-0.57-6.95c-0.33-3.86-1.07-7.72-2.37-11.41c-0.59-1.68-1.52-2.06-2.88-0.57c-1.56,1.71-3.25,3.29-4.84,4.97
		c-6.63,7.03-14.2,12.91-22.11,18.42c-3.74,2.6-8.12,4.53-10.95,8.15c-4.86,6.21-9.42,12.71-12.29,20.14
		c-1.82,4.7-2.27,9.65-1.62,14.69c0.21,1.59,0.97,1.99,2.38,1.49c1.72-0.6,3.51-1.05,5.14-1.84c6.7-3.22,13.29-6.63,19.36-11.02
		c11.77-8.52,21.71-18.71,29.63-30.91C394.36,261.64,394.59,260.08,394.44,258.1z M392.98,279.59c-0.21-0.68,0.35-1.61-0.42-2.05
		c-0.62-0.36-1,0.38-1.33,0.82c-3.94,5.27-8.89,9.52-13.9,13.68c-10.73,8.93-23.22,15.33-36.45,19.79c-2.98,1-2.99,2.53-0.51,6.47
		c3.4,5.41,8.12,9.88,13.67,13.04c2.09,1.19,4.04,2.01,6.11,0.47c5.44-4.05,10.25-8.81,14.51-14c6.39-7.8,11.48-16.47,14.83-26.06
		C390.89,287.78,392.32,283.81,392.98,279.59z M313.78,334.83c0.05,4.86,0.65,8.87,1.27,12.89c0.18,1.18,0.83,1.56,1.89,1.44
		c1.98-0.23,3.97-0.4,5.92-0.77c8.34-1.6,16.26-4.46,23.9-8.14c2.6-1.25,2.85-1.89,0.72-3.79c-5.88-5.2-9.67-11.77-12.6-18.92
		c-1.31-3.19-1.78-3.32-5.17-2.57c-4.69,1.03-9.43,1.87-14.19,2.55c-3.1,0.44-3.17,0.45-2.8,3.71
		C313.27,326.01,312.67,330.87,313.78,334.83z M305.59,337.72c0.39-5.29-0.68-11.09-0.4-16.91c0.11-2.25-0.84-2.84-2.94-2.84
		c-5.31,0-10.64-0.18-15.87-1.17c-1.94-0.37-2.81,0.5-2.96,2.04c-0.33,3.6-2.26,6.62-3.68,9.73c-1.94,4.25-4.44,8.33-8.27,11.35
		c-1.35,1.06-1.58,2.14,0.49,3.08c9.51,4.32,19.54,6.19,29.88,6.68c3.27,0.15,3.68-0.37,3.75-3.7
		C305.63,343.41,305.59,340.83,305.59,337.72z M418.95,239.78c0.19,2.02-0.1,4.5-0.49,6.96c-0.87,5.55-2.56,10.78-6.33,15.12
		c-1.42,1.63-3.02,3.68-5.3,3.18c-3.11-0.69-3.41,0.73-3.38,3.08c0.01,0.9-0.22,1.81-0.36,2.71c-0.3,1.95,0.26,2.8,2.49,2.87
		c8.11,0.22,12.66-4.84,16.17-11.01c3.52-6.17,5.06-12.94,5.41-20.16c0.35-7.35,0.05-14.51-2.41-21.44
		c-1.19-3.35-2.82-6.5-6.33-8.28c-4.91-2.49-11.47-2.37-14.92,2.14c-2.15,2.81-3.65,5.89-3.59,9.57c0.03,2.06,0.14,4.13-0.78,6.12
		c-0.45,0.96-0.23,2.11,0.13,3.18c0.6,1.8,1.26,3.61,1.65,5.46c0.38,1.79,1.16,1.89,2.35,0.84c1.56-1.39,2.85-2.97,3.67-4.96
		c1.51-3.67,2.21-7.45,2.05-11.41c-0.08-1.95,1.22-2.98,2.82-3.72c1.69-0.78,2.36,0.69,3.28,1.55c0.87,0.82,1.4,1.91,1.7,3.01
		C418.07,229.4,418.98,234.28,418.95,239.78z M278.72,317.2c0.12-1.47-0.85-1.84-1.96-2.17c-5.24-1.55-10.51-2.97-15.61-4.99
		c-1.72-0.68-3.39-1.88-5.44-1.47c-6.6,1.33-13.31,1.53-20,1.88c-0.69,0.04-1.66-0.3-1.98,0.59c-0.27,0.76,0.42,1.36,0.85,1.96
		c6.69,9.24,14.76,17.01,24.42,23.13c1.75,1.11,3.17,1.01,4.84,0.12c4.12-2.19,7.36-5.39,10.19-9
		C276.35,324.29,277.76,320.82,278.72,317.2z M305.07,303.67c-0.02,0-0.04,0-0.06,0c0-2.66,0.08-5.31-0.03-7.97
		c-0.08-2.04-0.91-2.44-2.76-1.53c-1.18,0.58-2.37,1.11-3.63,1.54c-4.2,1.43-8.34,3.06-12.5,4.62c-1.14,0.43-1.85,1.18-1.52,2.47
		c0.52,2.05,0.38,4.13,0.35,6.19c-0.02,1.55,0.68,2.41,2.1,2.57c5.35,0.61,10.67,1.46,16.09,1.2c1.54-0.07,2.02-0.68,1.98-2.12
		C305.02,308.32,305.07,305.99,305.07,303.67z M248.46,271.88c-3.91,3.24-7.61,6.26-10.81,9.85c-1.75,1.96-1,4.13,1.64,4.7
		c1.18,0.26,2.25,0.07,3.33-0.56C246.85,283.44,249.49,277.42,248.46,271.88z M287.48,260.16c-4.66,8.2-7.27,17.57-14.77,24.25
		C279.3,285.89,286.17,271.58,287.48,260.16z M267.52,306.17c2.43,1.6,5,1.95,7.35,2.83c1.66,0.62,3.75,1.37,4.95,0.52
		c1.36-0.97,0.5-3.23,0.44-4.93c-0.05-1.59-0.98-2.27-2.47-1.82C274.44,303.76,270.97,304.43,267.52,306.17z M245.78,254.42
		c-0.08-4.2-0.52-8.42,3.06-12.05C244.05,243.09,242.46,250.44,245.78,254.42z"/>
</g>
<g>
	<path class="st0" d="M264.41,231.42c0.2-3.18,0.2-6.27,1.41-9.17c1.57-3.78,5.94-5.81,9.83-4.71c2.39,0.67,3.56,2.39,4.07,4.58
		c0.47,2.02-0.31,3.79-1.85,5.12c-1,0.86-2.09,1.65-3.22,2.32c-2.77,1.62-5.04,3.75-6.95,6.31c-0.49,0.65-0.96,1.5-1.97,1.22
		c-1.01-0.28-0.97-1.27-1.06-2.07C264.53,233.79,264.49,232.54,264.41,231.42z M271.04,220.98c-2.9-0.2-5,3.35-4.1,6.52
		C268.68,225.64,268.95,222.95,271.04,220.98z"/>
</g>
<g>
	<path class="st0" d="M283.42,231.46c0.56-4.38,1.51-6.1,4.98-5.86c2.25,0.16,3.27,1.51,3.58,3.43c0.44,2.74-4.47,6.53-7.06,5.51
		C283.55,234,283.3,232.79,283.42,231.46z"/>
</g>
<g>
	<path class="st1" d="M394.44,258.1c0.16,1.98-0.07,3.54-1.12,5.16c-7.92,12.2-17.86,22.39-29.63,30.91
		c-6.07,4.4-12.65,7.8-19.36,11.02c-1.63,0.78-3.42,1.24-5.14,1.84c-1.41,0.5-2.17,0.1-2.38-1.49c-0.65-5.04-0.2-9.99,1.62-14.69
		c2.87-7.43,7.43-13.92,12.29-20.14c2.83-3.62,7.21-5.55,10.95-8.15c7.91-5.51,15.48-11.38,22.11-18.42
		c1.59-1.68,3.28-3.27,4.84-4.97c1.36-1.49,2.29-1.11,2.88,0.57c1.3,3.69,2.04,7.54,2.37,11.41
		C394.07,253.53,394.95,255.87,394.44,258.1z"/>
</g>
<g>
	<path class="st1" d="M392.98,279.59c-0.66,4.21-2.09,8.18-3.48,12.16c-3.35,9.59-8.44,18.26-14.83,26.06
		c-4.25,5.19-9.07,9.95-14.51,14c-1.67,1.24-3.26,0.95-4.91,0.17c-7.07-3.35-12.37-8.53-15.92-15.48c-1.37-2.69-0.9-3.88,1.7-4.72
		c13.4-4.3,25.6-10.83,36.43-19.84c4.96-4.13,9.87-8.36,13.77-13.58c0.33-0.44,0.71-1.19,1.33-0.82
		C393.33,277.99,392.77,278.91,392.98,279.59z"/>
</g>
<g>
	<path class="st1" d="M313.78,334.83c-1.12-3.96-0.51-8.82-1.06-13.6c-0.37-3.26-0.3-3.27,2.8-3.71c4.75-0.68,9.5-1.52,14.19-2.55
		c3.4-0.75,3.87-0.61,5.17,2.57c2.93,7.14,6.71,13.71,12.6,18.92c2.14,1.89,1.89,2.53-0.72,3.79c-7.64,3.68-15.56,6.53-23.9,8.14
		c-1.95,0.38-3.94,0.54-5.92,0.77c-1.06,0.13-1.71-0.26-1.89-1.44C314.43,343.71,313.83,339.69,313.78,334.83z"/>
</g>
<g>
	<path class="st1" d="M305.59,337.72c0,3.11,0.04,5.69-0.01,8.27c-0.06,3.33-0.48,3.85-3.75,3.7c-10.34-0.49-20.37-2.37-29.88-6.68
		c-2.07-0.94-1.84-2.02-0.49-3.08c3.84-3.02,6.33-7.1,8.27-11.35c1.42-3.11,3.35-6.12,3.68-9.73c0.14-1.54,1.01-2.41,2.96-2.04
		c5.23,0.99,10.56,1.17,15.87,1.17c2.1,0,3.05,0.58,2.94,2.84C304.91,326.63,305.99,332.43,305.59,337.72z"/>
</g>
<g>
	<path class="st1" d="M418.95,239.78c0.03-5.5-0.88-10.38-2.17-15.19c-0.3-1.11-0.83-2.19-1.7-3.01c-0.92-0.86-1.59-2.33-3.28-1.55
		c-1.6,0.73-2.9,1.77-2.82,3.72c0.16,3.96-0.54,7.74-2.05,11.41c-0.82,1.99-2.11,3.57-3.67,4.96c-1.19,1.06-1.97,0.95-2.35-0.84
		c-0.39-1.85-1.04-3.66-1.65-5.46c-0.36-1.07-0.58-2.21-0.13-3.18c0.93-1.99,0.82-4.06,0.78-6.12c-0.06-3.68,1.44-6.76,3.59-9.57
		c3.45-4.51,10.01-4.63,14.92-2.14c3.5,1.78,5.14,4.93,6.33,8.28c2.46,6.93,2.76,14.09,2.41,21.44c-0.35,7.22-1.89,13.98-5.41,20.16
		c-3.51,6.17-8.06,11.23-16.17,11.01c-2.23-0.06-2.79-0.92-2.49-2.87c0.14-0.9,0.37-1.81,0.36-2.71c-0.04-2.35,0.27-3.77,3.38-3.08
		c2.28,0.5,3.88-1.54,5.3-3.18c3.77-4.34,5.47-9.57,6.33-15.12C418.85,244.27,419.14,241.8,418.95,239.78z"/>
</g>
<g>
	<path class="st1" d="M278.72,317.2c-0.96,3.62-2.37,7.09-4.69,10.05c-2.83,3.6-6.07,6.81-10.19,9c-1.67,0.89-3.09,0.99-4.84-0.12
		c-9.67-6.12-17.73-13.89-24.42-23.13c-0.43-0.6-1.12-1.2-0.85-1.96c0.32-0.89,1.28-0.55,1.98-0.59c6.69-0.35,13.4-0.55,20-1.88
		c2.05-0.41,3.72,0.79,5.44,1.47c5.09,2.03,10.37,3.44,15.61,4.99C277.87,315.37,278.85,315.73,278.72,317.2z"/>
</g>
<g>
	<path class="st1" d="M338.99,277.18c0.22,0.89-0.16,1.64-0.61,2.34c-5.2,8.07-7.06,16.94-6.28,26.42c0.2,2.47-0.54,3.45-3.13,3.95
		c-4.07,0.78-8.12,1.64-12.23,2.23c-4.25,0.61-4.87,0.38-4.79-3.8c0.1-5.18-0.96-10.25-1.01-15.41c-0.01-1.48,0.41-2.71,1.78-3.26
		c8.17-3.31,15.93-7.45,23.71-11.56C337.23,277.67,338,277.1,338.99,277.18L338.99,277.18z"/>
</g>
<g>
	<path class="st1" d="M305.07,303.67c0,2.32-0.05,4.65,0.02,6.97c0.04,1.44-0.43,2.05-1.98,2.12c-5.42,0.26-10.75-0.59-16.09-1.2
		c-1.42-0.16-2.12-1.02-2.1-2.57c0.03-2.06,0.18-4.14-0.35-6.19c-0.33-1.29,0.39-2.05,1.52-2.47c4.16-1.56,8.3-3.18,12.5-4.62
		c1.26-0.43,2.45-0.95,3.63-1.54c1.85-0.91,2.68-0.51,2.76,1.53c0.11,2.65,0.03,5.31,0.03,7.97
		C305.03,303.67,305.05,303.67,305.07,303.67z"/>
</g>
<g>
	<path class="st2" d="M216.07,240.26c-0.23,1.12-0.45,2.24-0.68,3.35c-0.26,1.1-0.29,0.89-0.37,1.66c-0.05,0.74-0.11,1.48-0.16,2.22
		c-0.02,0.53-0.02,0.95-0.04,1.39c0.01,2.38,0.01,4.76,0.02,7.14c0.03,1.25,0,2.27,0.03,3.33c0.05,0.59,0.11,1.17,0.16,1.75
		c0.09,0.95,0.09,0.95,0.45,2.65c0.2,1.27,0.39,2.55,0.59,3.82c0.17,0.68,0.25,0.9,0.37,1.62c0.1,0.41,0.21,0.82,0.31,1.22
		c0.38,1.47,0.51,1.62-0.35,2.25c-0.11-0.29-0.22-0.57-0.33-0.85c-0.83-1.4-0.69-1.94-0.95-2.63c-2.93-9.77-3.82-19.66-1.79-29.74
		c1.4-6.95,6.65-12.07,13.33-12.39c-3.89,1.81-6.64,4.21-8.29,7.71"/>
</g>
<g>
	<path class="st1" d="M267.52,306.17c3.45-1.74,6.92-2.41,10.27-3.4c1.5-0.44,2.42,0.23,2.47,1.82c0.06,1.7,0.92,3.96-0.44,4.93
		c-1.2,0.86-3.29,0.1-4.95-0.52C272.52,308.12,269.95,307.78,267.52,306.17z"/>
</g>
<g>
	<path class="st1" d="M214.87,259.35"/>
</g>
<g>
	<path class="st1" d="M214.83,256.02"/>
</g>
<g>
	<path class="st1" d="M214.82,248.88"/>
</g>
<g>
	<path class="st1" d="M338.98,277.17c0.03-0.07,0.05-0.14,0.08-0.21c0.05,0.05,0.1,0.11,0.15,0.16
		C339.13,277.14,339.06,277.16,338.98,277.17C338.99,277.18,338.98,277.17,338.98,277.17z"/>
</g>
<g>
	<path class="st0" d="M199.11,375.63h6.24v11.48h11.48v-11.48h6.24v28.64h-6.24v-11.48h-11.48v11.48h-6.24V375.63z"/>
	<path class="st0" d="M234.69,402.89c-2.15-1.27-3.8-3.03-4.96-5.28c-1.16-2.25-1.74-4.81-1.74-7.66c0-2.85,0.58-5.4,1.74-7.64
		c1.16-2.24,2.81-3.99,4.96-5.26c2.15-1.27,4.66-1.9,7.54-1.9c2.85,0,5.35,0.63,7.5,1.9c2.15,1.27,3.8,3.02,4.96,5.26
		c1.16,2.24,1.74,4.79,1.74,7.64c0,2.85-0.58,5.41-1.74,7.66c-1.16,2.25-2.81,4.01-4.96,5.28c-2.15,1.27-4.65,1.9-7.5,1.9
		C239.35,404.79,236.83,404.16,234.69,402.89z M246.43,397.43c1.15-0.77,2.01-1.81,2.58-3.12c0.57-1.31,0.86-2.76,0.86-4.36
		c0-1.6-0.29-3.05-0.86-4.36c-0.57-1.31-1.43-2.35-2.58-3.12c-1.15-0.77-2.55-1.16-4.2-1.16c-2.45,0-4.34,0.82-5.66,2.46
		c-1.32,1.64-1.98,3.7-1.98,6.18c0,2.48,0.66,4.54,1.98,6.18c1.32,1.64,3.21,2.46,5.66,2.46
		C243.88,398.59,245.28,398.21,246.43,397.43z"/>
	<path class="st0" d="M266.21,402.89c-2.15-1.27-3.8-3.03-4.96-5.28c-1.16-2.25-1.74-4.81-1.74-7.66c0-2.85,0.58-5.4,1.74-7.64
		c1.16-2.24,2.81-3.99,4.96-5.26c2.15-1.27,4.66-1.9,7.54-1.9c2.85,0,5.35,0.63,7.5,1.9c2.15,1.27,3.8,3.02,4.96,5.26
		c1.16,2.24,1.74,4.79,1.74,7.64c0,2.85-0.58,5.41-1.74,7.66c-1.16,2.25-2.81,4.01-4.96,5.28c-2.15,1.27-4.65,1.9-7.5,1.9
		C270.87,404.79,268.35,404.16,266.21,402.89z M277.95,397.43c1.15-0.77,2.01-1.81,2.58-3.12c0.57-1.31,0.86-2.76,0.86-4.36
		c0-1.6-0.29-3.05-0.86-4.36c-0.57-1.31-1.43-2.35-2.58-3.12c-1.15-0.77-2.55-1.16-4.2-1.16c-2.45,0-4.34,0.82-5.66,2.46
		c-1.32,1.64-1.98,3.7-1.98,6.18c0,2.48,0.66,4.54,1.98,6.18c1.32,1.64,3.21,2.46,5.66,2.46
		C275.4,398.59,276.8,398.21,277.95,397.43z"/>
	<path class="st0" d="M305.75,375.63c1.79,0,3.38,0.41,4.78,1.22c1.4,0.81,2.49,1.93,3.28,3.34c0.79,1.41,1.18,3.01,1.18,4.8
		c0,1.76-0.39,3.35-1.18,4.78c-0.79,1.43-1.89,2.54-3.3,3.34c-1.41,0.8-3,1.2-4.76,1.2h-6.6v9.96h-6.24v-28.64H305.75z
		 M307.55,387.67c0.59-0.64,0.88-1.45,0.88-2.44c0-0.99-0.29-1.81-0.88-2.48c-0.59-0.67-1.4-1-2.44-1h-5.96v6.88h5.96
		C306.15,388.63,306.96,388.31,307.55,387.67z"/>
	<path class="st0" d="M322.63,403.69c-1.73-0.73-3.12-1.79-4.16-3.16c-1.04-1.37-1.56-2.98-1.56-4.82h7c0,1.04,0.4,1.87,1.2,2.48
		c0.8,0.61,1.83,0.92,3.08,0.92c1.23,0,2.25-0.28,3.06-0.84c0.81-0.56,1.22-1.29,1.22-2.2c0-0.83-0.43-1.47-1.28-1.92
		c-0.85-0.45-2.23-0.96-4.12-1.52c-1.97-0.59-3.59-1.16-4.86-1.72c-1.27-0.56-2.36-1.39-3.28-2.5c-0.92-1.11-1.38-2.55-1.38-4.34
		c0-1.73,0.47-3.27,1.42-4.62c0.95-1.35,2.26-2.4,3.94-3.16c1.68-0.76,3.57-1.14,5.68-1.14c1.81,0,3.54,0.35,5.18,1.04
		s2.99,1.72,4.04,3.08c1.05,1.36,1.59,2.99,1.62,4.88h-6.76c-0.08-1.15-0.51-2.01-1.3-2.58c-0.79-0.57-1.71-0.86-2.78-0.86
		c-1.15,0-2.09,0.29-2.82,0.88s-1.1,1.31-1.1,2.16c0,0.88,0.45,1.56,1.34,2.04c0.89,0.48,2.31,1,4.26,1.56
		c2,0.59,3.64,1.16,4.92,1.72c1.28,0.56,2.38,1.39,3.3,2.5c0.92,1.11,1.38,2.54,1.38,4.3c0,1.73-0.49,3.28-1.48,4.64
		c-0.99,1.36-2.37,2.41-4.14,3.16c-1.77,0.75-3.79,1.12-6.06,1.12C326.21,404.79,324.36,404.43,322.63,403.69z"/>
	<path class="st0" d="M365.98,375.63c2.56,0,4.81,0.61,6.76,1.84c1.95,1.23,3.45,2.93,4.52,5.1c1.07,2.17,1.6,4.63,1.6,7.38
		c0,2.75-0.53,5.21-1.6,7.38c-1.07,2.17-2.57,3.87-4.52,5.1c-1.95,1.23-4.2,1.84-6.76,1.84H355.3v-28.64H365.98z M370.38,395.79
		c1.15-1.57,1.72-3.52,1.72-5.84c0-2.32-0.57-4.27-1.72-5.84c-1.15-1.57-2.76-2.36-4.84-2.36h-3.96v16.4h3.96
		C367.62,398.15,369.24,397.37,370.38,395.79z"/>
	<path class="st0" d="M390.54,375.63h6.52l10.44,28.64h-6.68l-1.8-5.08h-10.44l-1.8,5.08h-6.68L390.54,375.63z M397.3,394.11
		l-3.52-10.2l-3.48,10.2H397.3z"/>
	<path class="st0" d="M411.86,381.43h-8.52v-5.8h23.28v5.8h-8.48v22.84h-6.28V381.43z"/>
	<path class="st0" d="M432.78,375.63h6.52l10.44,28.64h-6.68l-1.8-5.08h-10.44l-1.8,5.08h-6.68L432.78,375.63z M439.54,394.11
		l-3.52-10.2l-3.48,10.2H439.54z"/>
</g>
</svg>
